<svg
   id="flag-icons-ak"
   viewBox="0 0 640 480"
   version="1.1"
   sodipodi:docname="ak.svg"
   xml:space="preserve"
   inkscape:version="1.3 (0e150ed6c4, 2023-07-21)"
   xmlns:inkscape="http://www.inkscape.org/namespaces/inkscape"
   xmlns:sodipodi="http://sodipodi.sourceforge.net/DTD/sodipodi-0.dtd"
   xmlns="http://www.w3.org/2000/svg"
   xmlns:svg="http://www.w3.org/2000/svg"><defs
     id="defs121" /><sodipodi:namedview
     id="namedview121"
     pagecolor="#ffffff"
     bordercolor="#000000"
     borderopacity="0.25"
     inkscape:showpageshadow="2"
     inkscape:pageopacity="0.0"
     inkscape:pagecheckerboard="0"
     inkscape:deskcolor="#d1d1d1"
     inkscape:zoom="1.4142136"
     inkscape:cx="218.84955"
     inkscape:cy="267.99347"
     inkscape:window-width="2880"
     inkscape:window-height="1496"
     inkscape:window-x="-12"
     inkscape:window-y="-12"
     inkscape:window-maximized="1"
     inkscape:current-layer="flag-icons-ad" /><path
     fill="#d0103a"
     d="M0 0h640v480H0z"
     id="path1"
     style="fill:#192147;fill-opacity:1" /><path
     sodipodi:type="star"
     style="fill:#eab745;fill-opacity:1;stroke:none;stroke-width:43.5032;stroke-linejoin:bevel;stroke-dashoffset:4.01613"
     id="path136"
     inkscape:flatsided="false"
     sodipodi:sides="5"
     sodipodi:cx="411.19119"
     sodipodi:cy="145.79138"
     sodipodi:r1="42.262318"
     sodipodi:r2="16.482304"
     sodipodi:arg1="1.0471976"
     sodipodi:arg2="1.6755161"
     inkscape:rounded="0"
     inkscape:randomized="0"
     d="m 432.32235,182.39162 -22.85403,-20.20823 -26.55614,15.01501 12.15689,-27.98015 -22.48642,-20.6165 30.36739,2.91554 12.65877,-27.75671 6.6112,29.78206 30.30997,3.46191 -26.28145,15.49079 z"
     inkscape:transform-center-x="0.78526373"
     inkscape:transform-center-y="-0.74571373"
     transform="matrix(0.6047346,-0.06441051,0.06441051,0.6047346,265.53951,36.098493)" /><path
     sodipodi:type="star"
     style="fill:#eab745;fill-opacity:1;stroke:none;stroke-width:73.1768;stroke-linejoin:bevel;stroke-dashoffset:4.01613"
     id="path137"
     inkscape:flatsided="false"
     sodipodi:sides="5"
     sodipodi:cx="411.19119"
     sodipodi:cy="145.79138"
     sodipodi:r1="42.262318"
     sodipodi:r2="16.482304"
     sodipodi:arg1="1.0471976"
     sodipodi:arg2="1.6755161"
     inkscape:rounded="0"
     inkscape:randomized="0"
     d="m 432.32235,182.39162 -22.85403,-20.20823 -26.55614,15.01501 12.15689,-27.98015 -22.48642,-20.6165 30.36739,2.91554 12.65877,-27.75671 6.6112,29.78206 30.30997,3.46191 -26.28145,15.49079 z"
     inkscape:transform-center-x="0.4668378"
     inkscape:transform-center-y="-0.44334107"
     transform="matrix(0.35951135,-0.0382917,0.0382917,0.35951135,-49.647969,156.97516)" /><path
     sodipodi:type="star"
     style="fill:#eab745;fill-opacity:1;stroke:none;stroke-width:73.1768;stroke-linejoin:bevel;stroke-dashoffset:4.01613"
     id="path138"
     inkscape:flatsided="false"
     sodipodi:sides="5"
     sodipodi:cx="411.19119"
     sodipodi:cy="145.79138"
     sodipodi:r1="42.262318"
     sodipodi:r2="16.482304"
     sodipodi:arg1="1.0471976"
     sodipodi:arg2="1.6755161"
     inkscape:rounded="0"
     inkscape:randomized="0"
     d="m 432.32235,182.39162 -22.85403,-20.20823 -26.55614,15.01501 12.15689,-27.98015 -22.48642,-20.6165 30.36739,2.91554 12.65877,-27.75671 6.6112,29.78206 30.30997,3.46191 -26.28145,15.49079 z"
     inkscape:transform-center-x="0.4668378"
     inkscape:transform-center-y="-0.44334107"
     transform="matrix(0.35951135,-0.0382917,0.0382917,0.35951135,25.778808,184.97646)" /><path
     sodipodi:type="star"
     style="fill:#eab745;fill-opacity:1;stroke:none;stroke-width:73.1768;stroke-linejoin:bevel;stroke-dashoffset:4.01613"
     id="path139"
     inkscape:flatsided="false"
     sodipodi:sides="5"
     sodipodi:cx="411.19119"
     sodipodi:cy="145.79138"
     sodipodi:r1="42.262318"
     sodipodi:r2="16.482304"
     sodipodi:arg1="1.0471976"
     sodipodi:arg2="1.6755161"
     inkscape:rounded="0"
     inkscape:randomized="0"
     d="m 432.32235,182.39162 -22.85403,-20.20823 -26.55614,15.01501 12.15689,-27.98015 -22.48642,-20.6165 30.36739,2.91554 12.65877,-27.75671 6.6112,29.78206 30.30997,3.46191 -26.28145,15.49079 z"
     inkscape:transform-center-x="0.4668378"
     inkscape:transform-center-y="-0.44334107"
     transform="matrix(0.35951135,-0.0382917,0.0382917,0.35951135,63.370664,225.20924)" /><path
     sodipodi:type="star"
     style="fill:#eab745;fill-opacity:1;stroke:none;stroke-width:73.1768;stroke-linejoin:bevel;stroke-dashoffset:4.01613"
     id="path140"
     inkscape:flatsided="false"
     sodipodi:sides="5"
     sodipodi:cx="411.19119"
     sodipodi:cy="145.79138"
     sodipodi:r1="42.262318"
     sodipodi:r2="16.482304"
     sodipodi:arg1="1.0471976"
     sodipodi:arg2="1.6755161"
     inkscape:rounded="0"
     inkscape:randomized="0"
     d="m 432.32235,182.39162 -22.85403,-20.20823 -26.55614,15.01501 12.15689,-27.98015 -22.48642,-20.6165 30.36739,2.91554 12.65877,-27.75671 6.6112,29.78206 30.30997,3.46191 -26.28145,15.49079 z"
     inkscape:transform-center-x="0.4668378"
     inkscape:transform-center-y="-0.44334107"
     transform="matrix(0.35951135,-0.0382917,0.0382917,0.35951135,101.37066,267.17799)" /><path
     sodipodi:type="star"
     style="fill:#eab745;fill-opacity:1;stroke:none;stroke-width:73.1768;stroke-linejoin:bevel;stroke-dashoffset:4.01613"
     id="path141"
     inkscape:flatsided="false"
     sodipodi:sides="5"
     sodipodi:cx="411.19119"
     sodipodi:cy="145.79138"
     sodipodi:r1="42.262318"
     sodipodi:r2="16.482304"
     sodipodi:arg1="1.0471976"
     sodipodi:arg2="1.6755161"
     inkscape:rounded="0"
     inkscape:randomized="0"
     d="m 432.32235,182.39162 -22.85403,-20.20823 -26.55614,15.01501 12.15689,-27.98015 -22.48642,-20.6165 30.36739,2.91554 12.65877,-27.75671 6.6112,29.78206 30.30997,3.46191 -26.28145,15.49079 z"
     inkscape:transform-center-x="0.4668378"
     inkscape:transform-center-y="-0.44334107"
     transform="matrix(0.35951135,-0.0382917,0.0382917,0.35951135,96.332524,326.39819)" /><path
     sodipodi:type="star"
     style="fill:#eab745;fill-opacity:1;stroke:none;stroke-width:73.1768;stroke-linejoin:bevel;stroke-dashoffset:4.01613"
     id="path142"
     inkscape:flatsided="false"
     sodipodi:sides="5"
     sodipodi:cx="411.19119"
     sodipodi:cy="145.79138"
     sodipodi:r1="42.262318"
     sodipodi:r2="16.482304"
     sodipodi:arg1="1.0471976"
     sodipodi:arg2="1.6755161"
     inkscape:rounded="0"
     inkscape:randomized="0"
     d="m 432.32235,182.39162 -22.85403,-20.20823 -26.55614,15.01501 12.15689,-27.98015 -22.48642,-20.6165 30.36739,2.91554 12.65877,-27.75671 6.6112,29.78206 30.30997,3.46191 -26.28145,15.49079 z"
     inkscape:transform-center-x="0.4668378"
     inkscape:transform-center-y="-0.44334107"
     transform="matrix(0.35951135,-0.0382917,0.0382917,0.35951135,181.31866,354.22141)" /><path
     sodipodi:type="star"
     style="fill:#eab745;fill-opacity:1;stroke:none;stroke-width:73.1768;stroke-linejoin:bevel;stroke-dashoffset:4.01613"
     id="path143"
     inkscape:flatsided="false"
     sodipodi:sides="5"
     sodipodi:cx="411.19119"
     sodipodi:cy="145.79138"
     sodipodi:r1="42.262318"
     sodipodi:r2="16.482304"
     sodipodi:arg1="1.0471976"
     sodipodi:arg2="1.6755161"
     inkscape:rounded="0"
     inkscape:randomized="0"
     d="m 432.32235,182.39162 -22.85403,-20.20823 -26.55614,15.01501 12.15689,-27.98015 -22.48642,-20.6165 30.36739,2.91554 12.65877,-27.75671 6.6112,29.78206 30.30997,3.46191 -26.28145,15.49079 z"
     inkscape:transform-center-x="0.4668378"
     inkscape:transform-center-y="-0.44334107"
     transform="matrix(0.35951135,-0.0382917,0.0382917,0.35951135,214.36554,307.39329)" /></svg>
