<svg xmlns="http://www.w3.org/2000/svg" xml:space="preserve" id="flag-icons-ak" viewBox="0 0 640 480">
  <path fill="#192147" d="M0 0h640v480H0z"/>
  <path fill="#eab745" d="m524.4 72.1-5.8 17.6-18.6.2 15 11-5.6 17.7 15.1-10.8 15.1 10.8-5.6-17.7 14.9-11-18.6-.2zM103.8 178.4l-3.5 10.5h-11l8.9 6.6-3.4 10.5 9-6.4 9 6.4-3.3-10.5 8.8-6.6h-11zm75.4 28-3.5 10.5h-11l8.9 6.6-3.4 10.5 9-6.4 9 6.4-3.3-10.5 8.8-6.6h-11zm37.6 40.2-3.5 10.5h-11l8.9 6.6-3.4 10.5 9-6.4 9 6.4-3.3-10.5 8.8-6.6h-11zm38.4 42.8-3.5 10.4-11 .1 8.9 6.6-3.3 10.5 9-6.4 9 6.4-3.4-10.5 8.8-6.6-11-.1zm113.3 40.2-3.5 10.5h-11l8.8 6.6-3.3 10.6 9-6.4 9 6.3-3.3-10.5 8.8-6.6h-11zm-118.8 18.2-3.5 10.5h-11l8.9 6.6-3.4 10.5 9-6.4 9 6.4-3.3-10.5 8.8-6.6h-11zm85.7 29-3.5 10.4-11 .1 8.9 6.6-3.3 10.5 9-6.4 9 6.4-3.4-10.5 8.8-6.6-11-.1z"/>
</svg>
