<svg xmlns="http://www.w3.org/2000/svg" xml:space="preserve" id="flag-icons-ak" viewBox="0 0 640 480">
  <path fill="#d0103a" d="M0 0h640v480H0z" style="fill:#192147;fill-opacity:1"/>
  <path d="m432.3 182.4-22.8-20.2-26.6 15 12.2-28-22.5-20.6 30.4 3 12.6-27.8 6.6 29.7 30.3 3.5-26.3 15.5z" style="fill:#eab745;fill-opacity:1;stroke:none;stroke-width:43.5032;stroke-linejoin:bevel;stroke-dashoffset:4.01613" transform="rotate(-6.1 472.7 -2482) scale(.60816)"/>
  <path d="m432.3 182.4-22.8-20.2-26.6 15 12.2-28-22.5-20.6 30.4 3 12.6-27.8 6.6 29.7 30.3 3.5-26.3 15.5z" style="fill:#eab745;fill-opacity:1;stroke:none;stroke-width:73.1768;stroke-linejoin:bevel;stroke-dashoffset:4.01613" transform="matrix(.35951 -.0383 .0383 .35951 -49.6 157)"/>
  <path d="m432.3 182.4-22.8-20.2-26.6 15 12.2-28-22.5-20.6 30.4 3 12.6-27.8 6.6 29.7 30.3 3.5-26.3 15.5z" style="fill:#eab745;fill-opacity:1;stroke:none;stroke-width:73.1768;stroke-linejoin:bevel;stroke-dashoffset:4.01613" transform="matrix(.35951 -.0383 .0383 .35951 25.8 185)"/>
  <path d="m432.3 182.4-22.8-20.2-26.6 15 12.2-28-22.5-20.6 30.4 3 12.6-27.8 6.6 29.7 30.3 3.5-26.3 15.5z" style="fill:#eab745;fill-opacity:1;stroke:none;stroke-width:73.1768;stroke-linejoin:bevel;stroke-dashoffset:4.01613" transform="matrix(.35951 -.0383 .0383 .35951 63.4 225.2)"/>
  <path d="m432.3 182.4-22.8-20.2-26.6 15 12.2-28-22.5-20.6 30.4 3 12.6-27.8 6.6 29.7 30.3 3.5-26.3 15.5z" style="fill:#eab745;fill-opacity:1;stroke:none;stroke-width:73.1768;stroke-linejoin:bevel;stroke-dashoffset:4.01613" transform="rotate(-6.1 2566.2 -820.8) scale(.36154)"/>
  <path d="m432.3 182.4-22.8-20.2-26.6 15 12.2-28-22.5-20.6 30.4 3 12.6-27.8 6.6 29.7 30.3 3.5-26.3 15.5z" style="fill:#eab745;fill-opacity:1;stroke:none;stroke-width:73.1768;stroke-linejoin:bevel;stroke-dashoffset:4.01613" transform="matrix(.35951 -.0383 .0383 .35951 96.3 326.4)"/>
  <path d="m432.3 182.4-22.8-20.2-26.6 15 12.2-28-22.5-20.6 30.4 3 12.6-27.8 6.6 29.7 30.3 3.5-26.3 15.5z" style="fill:#eab745;fill-opacity:1;stroke:none;stroke-width:73.1768;stroke-linejoin:bevel;stroke-dashoffset:4.01613" transform="rotate(-6.1 3425.7 -1530) scale(.36154)"/>
  <path d="m432.3 182.4-22.8-20.2-26.6 15 12.2-28-22.5-20.6 30.4 3 12.6-27.8 6.6 29.7 30.3 3.5-26.3 15.5z" style="fill:#eab745;fill-opacity:1;stroke:none;stroke-width:73.1768;stroke-linejoin:bevel;stroke-dashoffset:4.01613" transform="rotate(-6.1 3000.8 -1864.5) scale(.36154)"/>
</svg>