<?xml version="1.0" encoding="UTF-8" standalone="no"?>
<svg
   id="flag-icons-ad"
   viewBox="0 0 640 480"
   version="1.1"
   sodipodi:docname="hi.svg"
   xml:space="preserve"
   inkscape:version="1.3 (0e150ed6c4, 2023-07-21)"
   xmlns:inkscape="http://www.inkscape.org/namespaces/inkscape"
   xmlns:sodipodi="http://sodipodi.sourceforge.net/DTD/sodipodi-0.dtd"
   xmlns="http://www.w3.org/2000/svg"
   xmlns:svg="http://www.w3.org/2000/svg"><defs
     id="defs121" /><sodipodi:namedview
     id="namedview121"
     pagecolor="#ffffff"
     bordercolor="#000000"
     borderopacity="0.25"
     inkscape:showpageshadow="2"
     inkscape:pageopacity="0.0"
     inkscape:pagecheckerboard="0"
     inkscape:deskcolor="#d1d1d1"
     inkscape:zoom="1.3998505"
     inkscape:cx="300.03205"
     inkscape:cy="295.74588"
     inkscape:window-width="2880"
     inkscape:window-height="1496"
     inkscape:window-x="-12"
     inkscape:window-y="-12"
     inkscape:window-maximized="1"
     inkscape:current-layer="flag-icons-ad" /><path
     fill="#d0103a"
     d="M0 0h640v480H0z"
     id="path1"
     style="fill:#ffffff;fill-opacity:1" /><g
     transform="matrix(0.64,0,0,0.64,115.02718,49.575015)"
     id="g120" /><rect
     style="fill:#ad2d34;fill-opacity:1;stroke-width:26.4567;stroke-linejoin:bevel;stroke-dashoffset:4.01613"
     id="rect129"
     width="640"
     height="60"
     x="0"
     y="420"
     rx="5.2451483e-16"
     ry="5.2451483e-16" /><rect
     style="fill:#1a2364;fill-opacity:1;stroke-width:26.4567;stroke-linejoin:bevel;stroke-dashoffset:4.01613"
     id="rect130"
     width="640"
     height="60"
     x="0"
     y="360"
     rx="5.2451483e-16"
     ry="5.2451483e-16" /><rect
     style="fill:#ffffff;fill-opacity:1;stroke-width:26.4567;stroke-linejoin:bevel;stroke-dashoffset:4.01613"
     id="rect131"
     width="640"
     height="60"
     x="0"
     y="300"
     rx="5.2451483e-16"
     ry="5.2451483e-16" /><rect
     style="fill:#ad2d34;fill-opacity:1;stroke-width:26.4567;stroke-linejoin:bevel;stroke-dashoffset:4.01613"
     id="rect132"
     width="640"
     height="60"
     x="0"
     y="240"
     rx="5.2451483e-16"
     ry="5.2451483e-16" /><rect
     style="fill:#ffffff;fill-opacity:1;stroke-width:26.4567;stroke-linejoin:bevel;stroke-dashoffset:4.01613"
     id="rect133"
     width="640"
     height="60"
     x="0"
     y="180"
     rx="5.2451483e-16"
     ry="5.2451483e-16" /><rect
     style="fill:#1a2364;fill-opacity:1;stroke-width:26.4567;stroke-linejoin:bevel;stroke-dashoffset:4.01613"
     id="rect134"
     width="640"
     height="60"
     x="0"
     y="120"
     rx="5.2451483e-16"
     ry="5.2451483e-16" /><rect
     style="fill:#ad2d34;fill-opacity:1;stroke-width:26.4567;stroke-linejoin:bevel;stroke-dashoffset:4.01613"
     id="rect135"
     width="640"
     height="60"
     x="0"
     y="60"
     rx="5.2451483e-16"
     ry="5.2451483e-16" /><rect
     style="fill:#ffffff;fill-opacity:1;stroke-width:26.4567;stroke-linejoin:bevel;stroke-dashoffset:4.01613"
     id="rect136"
     width="640"
     height="60"
     x="0"
     y="0"
     rx="5.2451483e-16"
     ry="5.2451483e-16" /><path
     fill="#012169"
     d="M 0,0 H 320 V 240 H 0 Z"
     id="path1-9"
     style="stroke-width:1;fill:#1a2364;fill-opacity:1" /><path
     fill="#ffffff"
     d="M 37.5,0 159.5,90.5 281,0 h 39 v 31 l -120,89.5 120,89 V 240 H 280 L 160,150.5 40.5,240 H 0 V 210 L 119.5,121 0,32 V 0 Z"
     id="path2"
     style="stroke-width:1;fill:#ffffff;fill-opacity:1" /><path
     fill="#c8102e"
     d="M 212,140.5 320,220 v 20 L 184.5,140.5 Z m -92,10 3,17.5 -96,72 H 0 Z M 320,0 v 1.5 l -124.5,94 1,-22 L 295,0 Z M 0,0 119.5,88 h -30 L 0,21 Z"
     id="path3"
     style="stroke-width:1;fill:#ad2d34;fill-opacity:1" /><path
     fill="#ffffff"
     d="m 120.5,0 v 240 h 80 V 0 Z M 0,80 v 80 H 320 V 80 Z"
     id="path4"
     style="stroke-width:1" /><path
     fill="#c8102e"
     d="m 0,96.5 v 48 h 320 v -48 z M 136.5,0 v 240 h 48 V 0 Z"
     id="path5"
     sodipodi:nodetypes="cccccccccc"
     style="stroke-width:1;fill:#ad2d34;fill-opacity:1" /></svg>
