<?xml version="1.0" encoding="UTF-8" standalone="no"?>
<svg
   id="flag-icons-ip"
   viewBox="0 0 640 480"
   version="1.1"
   sodipodi:docname="sample-flag.svg"
   inkscape:version="1.3 (0e150ed6c4, 2023-07-21)"
   xmlns:inkscape="http://www.inkscape.org/namespaces/inkscape"
   xmlns:sodipodi="http://sodipodi.sourceforge.net/DTD/sodipodi-0.dtd"
   xmlns="http://www.w3.org/2000/svg"
   xmlns:svg="http://www.w3.org/2000/svg">
  <defs
     id="defs121">
    <clipPath
       id="il-a">
      <path
         fill-opacity="0.7"
         d="M -87.6,0 H 595 V 512 H -87.6 Z"
         id="path1" />
    </clipPath>
    <clipPath
       clipPathUnits="userSpaceOnUse"
       id="clipPath131">
      <path
         style="fill:#ffffff;stroke-width:26.4567;stroke-linejoin:bevel;stroke-dashoffset:4.01613"
         d="M 317.94823,480.79687 H -0.03125 V 0.796875 h 320 z"
         id="path131"
         sodipodi:nodetypes="ccccc" />
    </clipPath>
  </defs>
  <sodipodi:namedview
     id="namedview121"
     pagecolor="#ffffff"
     bordercolor="#000000"
     borderopacity="0.25"
     inkscape:showpageshadow="2"
     inkscape:pageopacity="0.0"
     inkscape:pagecheckerboard="0"
     inkscape:deskcolor="#d1d1d1"
     inkscape:zoom="0.98984375"
     inkscape:cx="312.67561"
     inkscape:cy="376.82715"
     inkscape:window-width="2880"
     inkscape:window-height="1496"
     inkscape:window-x="-12"
     inkscape:window-y="-12"
     inkscape:window-maximized="1"
     inkscape:current-layer="flag-icons-ad" />
  <g
     id="g130">
    <g
       fill-rule="evenodd"
       clip-path="url(#il-a)"
       transform="matrix(0.9375,0,0,0.9375,82.125,0)"
       id="g6"
       style="stroke-width:1.00267">
      <path
         fill="#ffffff"
         d="M 619.4,512 H -112 V 0 h 731.4 z"
         id="path2"
         style="stroke-width:1.00267" />
      <path
         fill="#0038b8"
         d="M 619.4,115.2 H -112 V 48 h 731.4 z m 0,350.5 H -112 V 398.5 H 619.4 Z M 136.4,190.7 246.5,382.3 359,191.6 Z"
         id="path3"
         style="stroke-width:1.00267" />
      <path
         fill="#ffffff"
         d="m 225.8,317.8 20.9,35.5 21.4,-35.3 z"
         id="path4"
         style="stroke-width:1.00267" />
      <path
         fill="#0038b8"
         d="M 136,320.6 246.2,129 358.6,319.8 Z"
         id="path5"
         style="stroke-width:1.00267" />
      <path
         fill="#ffffff"
         d="m 225.8,191.6 20.9,-35.5 21.4,35.4 z m -43.8,79.5 -21.7,36 41,-0.1 -19.3,-36 z m -21.3,-66.5 41.2,0.3 -19.8,36.3 z m 151.2,67 20.9,35.5 -41.7,-0.5 z m 20.5,-67 -41.2,0.3 19.8,36.3 z m -114.3,0 -28.4,51.4 28.8,50.3 52.8,1.2 32,-51.5 -29.6,-52 z"
         id="path6"
         style="stroke-width:1.00267" />
    </g>
  </g>
  <g
     id="g129"
     transform="translate(0.03125,-0.796875)"
     clip-path="url(#clipPath131)">
    <path
       fill="#009639"
       d="m -0.03125,0.796875 h 640 V 480.79687 h -640 z"
       id="path1-5" />
    <path
       fill="#ffffff"
       d="m -0.03125,0.796875 h 640 V 320.79687 h -640 z"
       id="path2-0" />
    <path
       d="m -0.03125,0.796875 h 640 V 160.79687 h -640 z"
       id="path3-5" />
    <path
       fill="#ed2e38"
       d="m -0.03125,0.796875 320,239.999995 -320,240 z"
       id="path4-2" />
  </g>
</svg>
